<svg width="1468" height="1052" viewBox="0 0 1468 1052" fill="none" xmlns="http://www.w3.org/2000/svg">
<g filter="url(#filter0_dd_5_1287)">
<path d="M1454 8H14V1032H1454V8Z" fill="#1D2D44"/>
<path d="M1454 8H14V167H1454V8Z" fill="#748CAB"/>
<g filter="url(#filter1_d_5_1287)">
<path d="M673.016 75.25H680.547C682.255 75.25 683.698 75.5104 684.875 76.0312C686.062 76.5521 686.964 77.3229 687.578 78.3438C688.203 79.3542 688.516 80.599 688.516 82.0781C688.516 83.1198 688.302 84.0729 687.875 84.9375C687.458 85.7917 686.854 86.5208 686.062 87.125C685.281 87.7188 684.344 88.1615 683.25 88.4531L682.406 88.7812H675.328L675.297 86.3281H680.641C681.724 86.3281 682.625 86.1406 683.344 85.7656C684.062 85.3802 684.604 84.8646 684.969 84.2188C685.333 83.5729 685.516 82.8594 685.516 82.0781C685.516 81.2031 685.344 80.4375 685 79.7812C684.656 79.125 684.115 78.6198 683.375 78.2656C682.646 77.901 681.703 77.7188 680.547 77.7188H676.031V98H673.016V75.25ZM686.312 98L680.781 87.6875L683.922 87.6719L689.531 97.8125V98H686.312ZM699.312 98.3125C698.135 98.3125 697.068 98.1146 696.109 97.7188C695.161 97.3125 694.344 96.7448 693.656 96.0156C692.979 95.2865 692.458 94.4219 692.094 93.4219C691.729 92.4219 691.547 91.3281 691.547 90.1406V89.4844C691.547 88.1094 691.75 86.8854 692.156 85.8125C692.562 84.7292 693.115 83.8125 693.812 83.0625C694.51 82.3125 695.302 81.7448 696.188 81.3594C697.073 80.974 697.99 80.7812 698.938 80.7812C700.146 80.7812 701.188 80.9896 702.062 81.4062C702.948 81.8229 703.672 82.4062 704.234 83.1562C704.797 83.8958 705.214 84.7708 705.484 85.7812C705.755 86.7812 705.891 87.875 705.891 89.0625V90.3594H693.266V88H703V87.7812C702.958 87.0312 702.802 86.3021 702.531 85.5938C702.271 84.8854 701.854 84.3021 701.281 83.8438C700.708 83.3854 699.927 83.1562 698.938 83.1562C698.281 83.1562 697.677 83.2969 697.125 83.5781C696.573 83.849 696.099 84.2552 695.703 84.7969C695.307 85.3385 695 86 694.781 86.7812C694.562 87.5625 694.453 88.4635 694.453 89.4844V90.1406C694.453 90.9427 694.562 91.6979 694.781 92.4062C695.01 93.1042 695.339 93.7188 695.766 94.25C696.203 94.7812 696.729 95.1979 697.344 95.5C697.969 95.8021 698.677 95.9531 699.469 95.9531C700.49 95.9531 701.354 95.7448 702.062 95.3281C702.771 94.9115 703.391 94.3542 703.922 93.6562L705.672 95.0469C705.307 95.599 704.844 96.125 704.281 96.625C703.719 97.125 703.026 97.5312 702.203 97.8438C701.391 98.1562 700.427 98.3125 699.312 98.3125ZM720.219 81.0938H722.844V97.6406C722.844 99.1302 722.542 100.401 721.938 101.453C721.333 102.505 720.49 103.302 719.406 103.844C718.333 104.396 717.094 104.672 715.688 104.672C715.104 104.672 714.417 104.578 713.625 104.391C712.844 104.214 712.073 103.906 711.312 103.469C710.562 103.042 709.932 102.464 709.422 101.734L710.938 100.016C711.646 100.87 712.385 101.464 713.156 101.797C713.938 102.13 714.708 102.297 715.469 102.297C716.385 102.297 717.177 102.125 717.844 101.781C718.51 101.438 719.026 100.927 719.391 100.25C719.766 99.5833 719.953 98.7604 719.953 97.7812V84.8125L720.219 81.0938ZM708.578 89.7344V89.4062C708.578 88.1146 708.729 86.9427 709.031 85.8906C709.344 84.8281 709.786 83.9167 710.359 83.1562C710.943 82.3958 711.646 81.8125 712.469 81.4062C713.292 80.9896 714.219 80.7812 715.25 80.7812C716.312 80.7812 717.24 80.9688 718.031 81.3438C718.833 81.7083 719.51 82.2448 720.062 82.9531C720.625 83.651 721.068 84.4948 721.391 85.4844C721.714 86.474 721.938 87.5938 722.062 88.8438V90.2812C721.948 91.5208 721.724 92.6354 721.391 93.625C721.068 94.6146 720.625 95.4583 720.062 96.1562C719.51 96.8542 718.833 97.3906 718.031 97.7656C717.229 98.1302 716.292 98.3125 715.219 98.3125C714.208 98.3125 713.292 98.099 712.469 97.6719C711.656 97.2448 710.958 96.6458 710.375 95.875C709.792 95.1042 709.344 94.1979 709.031 93.1562C708.729 92.1042 708.578 90.9635 708.578 89.7344ZM711.469 89.4062V89.7344C711.469 90.5781 711.552 91.3698 711.719 92.1094C711.896 92.849 712.161 93.5 712.516 94.0625C712.88 94.625 713.344 95.0677 713.906 95.3906C714.469 95.7031 715.141 95.8594 715.922 95.8594C716.88 95.8594 717.672 95.6562 718.297 95.25C718.922 94.8438 719.417 94.3073 719.781 93.6406C720.156 92.974 720.448 92.25 720.656 91.4688V87.7031C720.542 87.1302 720.365 86.5781 720.125 86.0469C719.896 85.5052 719.594 85.026 719.219 84.6094C718.854 84.1823 718.401 83.8438 717.859 83.5938C717.318 83.3438 716.682 83.2188 715.953 83.2188C715.161 83.2188 714.479 83.3854 713.906 83.7188C713.344 84.0417 712.88 84.4896 712.516 85.0625C712.161 85.625 711.896 86.2812 711.719 87.0312C711.552 87.7708 711.469 88.5625 711.469 89.4062ZM730.375 81.0938V98H727.469V81.0938H730.375ZM727.25 76.6094C727.25 76.1406 727.391 75.7448 727.672 75.4219C727.964 75.099 728.391 74.9375 728.953 74.9375C729.505 74.9375 729.927 75.099 730.219 75.4219C730.521 75.7448 730.672 76.1406 730.672 76.6094C730.672 77.0573 730.521 77.4427 730.219 77.7656C729.927 78.0781 729.505 78.2344 728.953 78.2344C728.391 78.2344 727.964 78.0781 727.672 77.7656C727.391 77.4427 727.25 77.0573 727.25 76.6094ZM744.859 93.5156C744.859 93.099 744.766 92.7135 744.578 92.3594C744.401 91.9948 744.031 91.6667 743.469 91.375C742.917 91.0729 742.083 90.8125 740.969 90.5938C740.031 90.3958 739.182 90.1615 738.422 89.8906C737.672 89.6198 737.031 89.2917 736.5 88.9062C735.979 88.5208 735.578 88.0677 735.297 87.5469C735.016 87.026 734.875 86.4167 734.875 85.7188C734.875 85.0521 735.021 84.4219 735.312 83.8281C735.615 83.2344 736.036 82.7083 736.578 82.25C737.13 81.7917 737.792 81.4323 738.562 81.1719C739.333 80.9115 740.193 80.7812 741.141 80.7812C742.495 80.7812 743.651 81.0208 744.609 81.5C745.568 81.9792 746.302 82.6198 746.812 83.4219C747.323 84.2135 747.578 85.0938 747.578 86.0625H744.688C744.688 85.5938 744.547 85.1406 744.266 84.7031C743.995 84.2552 743.594 83.8854 743.062 83.5938C742.542 83.3021 741.901 83.1562 741.141 83.1562C740.339 83.1562 739.688 83.2812 739.188 83.5312C738.698 83.7708 738.339 84.0781 738.109 84.4531C737.891 84.8281 737.781 85.224 737.781 85.6406C737.781 85.9531 737.833 86.2344 737.938 86.4844C738.052 86.724 738.25 86.9479 738.531 87.1562C738.812 87.3542 739.208 87.5417 739.719 87.7188C740.229 87.8958 740.88 88.0729 741.672 88.25C743.057 88.5625 744.198 88.9375 745.094 89.375C745.99 89.8125 746.656 90.349 747.094 90.9844C747.531 91.6198 747.75 92.3906 747.75 93.2969C747.75 94.0365 747.594 94.7135 747.281 95.3281C746.979 95.9427 746.536 96.474 745.953 96.9219C745.38 97.3594 744.693 97.7031 743.891 97.9531C743.099 98.1927 742.208 98.3125 741.219 98.3125C739.729 98.3125 738.469 98.0469 737.438 97.5156C736.406 96.9844 735.625 96.2969 735.094 95.4531C734.562 94.6094 734.297 93.7188 734.297 92.7812H737.203C737.245 93.5729 737.474 94.2031 737.891 94.6719C738.307 95.1302 738.818 95.4583 739.422 95.6562C740.026 95.8438 740.625 95.9375 741.219 95.9375C742.01 95.9375 742.672 95.8333 743.203 95.625C743.745 95.4167 744.156 95.1302 744.438 94.7656C744.719 94.401 744.859 93.9844 744.859 93.5156ZM758.625 81.0938V83.3125H749.484V81.0938H758.625ZM752.578 76.9844H755.469V93.8125C755.469 94.3854 755.557 94.8177 755.734 95.1094C755.911 95.401 756.141 95.5938 756.422 95.6875C756.703 95.7812 757.005 95.8281 757.328 95.8281C757.568 95.8281 757.818 95.8073 758.078 95.7656C758.349 95.7135 758.552 95.6719 758.688 95.6406L758.703 98C758.474 98.0729 758.172 98.1406 757.797 98.2031C757.432 98.276 756.99 98.3125 756.469 98.3125C755.76 98.3125 755.109 98.1719 754.516 97.8906C753.922 97.6094 753.448 97.1406 753.094 96.4844C752.75 95.8177 752.578 94.9219 752.578 93.7969V76.9844ZM769.031 98.3125C767.854 98.3125 766.786 98.1146 765.828 97.7188C764.88 97.3125 764.062 96.7448 763.375 96.0156C762.698 95.2865 762.177 94.4219 761.812 93.4219C761.448 92.4219 761.266 91.3281 761.266 90.1406V89.4844C761.266 88.1094 761.469 86.8854 761.875 85.8125C762.281 84.7292 762.833 83.8125 763.531 83.0625C764.229 82.3125 765.021 81.7448 765.906 81.3594C766.792 80.974 767.708 80.7812 768.656 80.7812C769.865 80.7812 770.906 80.9896 771.781 81.4062C772.667 81.8229 773.391 82.4062 773.953 83.1562C774.516 83.8958 774.932 84.7708 775.203 85.7812C775.474 86.7812 775.609 87.875 775.609 89.0625V90.3594H762.984V88H772.719V87.7812C772.677 87.0312 772.521 86.3021 772.25 85.5938C771.99 84.8854 771.573 84.3021 771 83.8438C770.427 83.3854 769.646 83.1562 768.656 83.1562C768 83.1562 767.396 83.2969 766.844 83.5781C766.292 83.849 765.818 84.2552 765.422 84.7969C765.026 85.3385 764.719 86 764.5 86.7812C764.281 87.5625 764.172 88.4635 764.172 89.4844V90.1406C764.172 90.9427 764.281 91.6979 764.5 92.4062C764.729 93.1042 765.057 93.7188 765.484 94.25C765.922 94.7812 766.448 95.1979 767.062 95.5C767.688 95.8021 768.396 95.9531 769.188 95.9531C770.208 95.9531 771.073 95.7448 771.781 95.3281C772.49 94.9115 773.109 94.3542 773.641 93.6562L775.391 95.0469C775.026 95.599 774.562 96.125 774 96.625C773.438 97.125 772.745 97.5312 771.922 97.8438C771.109 98.1562 770.146 98.3125 769.031 98.3125ZM781.875 83.75V98H778.984V81.0938H781.797L781.875 83.75ZM787.156 81L787.141 83.6875C786.901 83.6354 786.672 83.6042 786.453 83.5938C786.245 83.5729 786.005 83.5625 785.734 83.5625C785.068 83.5625 784.479 83.6667 783.969 83.875C783.458 84.0833 783.026 84.375 782.672 84.75C782.318 85.125 782.036 85.5729 781.828 86.0938C781.63 86.6042 781.5 87.1667 781.438 87.7812L780.625 88.25C780.625 87.2292 780.724 86.2708 780.922 85.375C781.13 84.4792 781.448 83.6875 781.875 83C782.302 82.3021 782.844 81.7604 783.5 81.375C784.167 80.9792 784.958 80.7812 785.875 80.7812C786.083 80.7812 786.323 80.8073 786.594 80.8594C786.865 80.901 787.052 80.9479 787.156 81Z" fill="#F4C095"/>
</g>
<path d="M569 343C569 338.582 572.582 335 577 335H881C885.418 335 889 338.582 889 343V697C889 701.418 885.418 705 881 705H577C572.582 705 569 701.418 569 697V343Z" fill="#748CAB"/>
<mask id="mask0_5_1287" style="mask-type:luminance" maskUnits="userSpaceOnUse" x="569" y="335" width="320" height="370">
<path d="M569 343C569 338.582 572.582 335 577 335H881C885.418 335 889 338.582 889 343V697C889 701.418 885.418 705 881 705H577C572.582 705 569 701.418 569 697V343Z" fill="white"/>
</mask>
<g mask="url(#mask0_5_1287)">
<path d="M577 336H881V334H577V336ZM888 343V697H890V343H888ZM881 704H577V706H881V704ZM570 697V343H568V697H570ZM577 704C573.134 704 570 700.866 570 697H568C568 701.971 572.029 706 577 706V704ZM888 697C888 700.866 884.866 704 881 704V706C885.971 706 890 701.971 890 697H888ZM881 336C884.866 336 888 339.134 888 343H890C890 338.029 885.971 334 881 334V336ZM577 334C572.029 334 568 338.029 568 343H570C570 339.134 573.134 336 577 336V334Z" fill="#1D2D44"/>
</g>
<path d="M594.409 376V364.364H601.432V365.614H595.818V369.545H601.068V370.795H595.818V374.75H601.523V376H594.409ZM603.79 376V367.273H605.085V368.636H605.199C605.381 368.17 605.674 367.809 606.08 367.551C606.485 367.29 606.972 367.159 607.54 367.159C608.116 367.159 608.595 367.29 608.977 367.551C609.364 367.809 609.665 368.17 609.881 368.636H609.972C610.195 368.186 610.53 367.828 610.977 367.562C611.424 367.294 611.96 367.159 612.585 367.159C613.366 367.159 614.004 367.403 614.5 367.892C614.996 368.377 615.244 369.133 615.244 370.159V376H613.903V370.159C613.903 369.515 613.727 369.055 613.375 368.778C613.023 368.502 612.608 368.364 612.131 368.364C611.517 368.364 611.042 368.549 610.705 368.92C610.367 369.288 610.199 369.754 610.199 370.318V376H608.835V370.023C608.835 369.527 608.674 369.127 608.352 368.824C608.03 368.517 607.616 368.364 607.108 368.364C606.759 368.364 606.434 368.456 606.131 368.642C605.831 368.828 605.589 369.085 605.403 369.415C605.222 369.741 605.131 370.117 605.131 370.545V376H603.79ZM620.264 376.205C619.711 376.205 619.209 376.1 618.759 375.892C618.308 375.68 617.95 375.375 617.685 374.977C617.42 374.576 617.287 374.091 617.287 373.523C617.287 373.023 617.385 372.617 617.582 372.307C617.779 371.992 618.043 371.746 618.372 371.568C618.702 371.39 619.065 371.258 619.463 371.17C619.865 371.08 620.268 371.008 620.673 370.955C621.204 370.886 621.634 370.835 621.963 370.801C622.296 370.763 622.539 370.701 622.69 370.614C622.846 370.527 622.923 370.375 622.923 370.159V370.114C622.923 369.553 622.77 369.117 622.463 368.807C622.16 368.496 621.7 368.341 621.082 368.341C620.442 368.341 619.94 368.481 619.577 368.761C619.213 369.042 618.957 369.341 618.81 369.659L617.537 369.205C617.764 368.674 618.067 368.261 618.446 367.966C618.829 367.667 619.245 367.458 619.696 367.341C620.151 367.22 620.598 367.159 621.037 367.159C621.317 367.159 621.639 367.193 622.003 367.261C622.37 367.326 622.724 367.46 623.065 367.665C623.41 367.869 623.696 368.178 623.923 368.591C624.151 369.004 624.264 369.557 624.264 370.25V376H622.923V374.818H622.855C622.764 375.008 622.613 375.21 622.401 375.426C622.188 375.642 621.906 375.826 621.554 375.977C621.202 376.129 620.772 376.205 620.264 376.205ZM620.469 375C620.999 375 621.446 374.896 621.81 374.688C622.177 374.479 622.454 374.21 622.639 373.881C622.829 373.551 622.923 373.205 622.923 372.841V371.614C622.866 371.682 622.741 371.744 622.548 371.801C622.359 371.854 622.139 371.902 621.889 371.943C621.643 371.981 621.402 372.015 621.168 372.045C620.937 372.072 620.749 372.095 620.605 372.114C620.257 372.159 619.931 372.233 619.628 372.335C619.329 372.434 619.086 372.583 618.901 372.784C618.719 372.981 618.628 373.25 618.628 373.591C618.628 374.057 618.8 374.409 619.145 374.648C619.493 374.883 619.935 375 620.469 375ZM626.712 376V367.273H628.053V376H626.712ZM627.393 365.818C627.132 365.818 626.907 365.729 626.717 365.551C626.532 365.373 626.439 365.159 626.439 364.909C626.439 364.659 626.532 364.445 626.717 364.267C626.907 364.089 627.132 364 627.393 364C627.655 364 627.878 364.089 628.064 364.267C628.253 364.445 628.348 364.659 628.348 364.909C628.348 365.159 628.253 365.373 628.064 365.551C627.878 365.729 627.655 365.818 627.393 365.818ZM631.849 364.364V376H630.509V364.364H631.849Z" fill="#1D2D44"/>
<path d="M593 397C593 392.582 596.582 389 601 389H857C861.418 389 865 392.582 865 397V421C865 425.418 861.418 429 857 429H601C596.582 429 593 425.418 593 421V397Z" fill="#748CAB"/>
<path d="M601 389.5H857V388.5H601V389.5ZM864.5 397V421H865.5V397H864.5ZM857 428.5H601V429.5H857V428.5ZM593.5 421V397H592.5V421H593.5ZM601 428.5C596.858 428.5 593.5 425.142 593.5 421H592.5C592.5 425.694 596.306 429.5 601 429.5V428.5ZM864.5 421C864.5 425.142 861.142 428.5 857 428.5V429.5C861.694 429.5 865.5 425.694 865.5 421H864.5ZM857 389.5C861.142 389.5 864.5 392.858 864.5 397H865.5C865.5 392.306 861.694 388.5 857 388.5V389.5ZM601 388.5C596.306 388.5 592.5 392.306 592.5 397H593.5C593.5 392.858 596.858 389.5 601 389.5V388.5Z" fill="#1D2D44"/>
<path d="M610.886 403.364L614.341 413.159H614.477L617.932 403.364H619.409L615.136 415H613.682L609.409 403.364H610.886ZM622.795 415.205C622.242 415.205 621.741 415.1 621.29 414.892C620.839 414.68 620.481 414.375 620.216 413.977C619.951 413.576 619.818 413.091 619.818 412.523C619.818 412.023 619.917 411.617 620.114 411.307C620.311 410.992 620.574 410.746 620.903 410.568C621.233 410.39 621.597 410.258 621.994 410.17C622.396 410.08 622.799 410.008 623.205 409.955C623.735 409.886 624.165 409.835 624.494 409.801C624.828 409.763 625.07 409.701 625.222 409.614C625.377 409.527 625.455 409.375 625.455 409.159V409.114C625.455 408.553 625.301 408.117 624.994 407.807C624.691 407.496 624.231 407.341 623.614 407.341C622.973 407.341 622.472 407.481 622.108 407.761C621.744 408.042 621.489 408.341 621.341 408.659L620.068 408.205C620.295 407.674 620.598 407.261 620.977 406.966C621.36 406.667 621.777 406.458 622.227 406.341C622.682 406.22 623.129 406.159 623.568 406.159C623.848 406.159 624.17 406.193 624.534 406.261C624.902 406.326 625.256 406.46 625.597 406.665C625.941 406.869 626.227 407.178 626.455 407.591C626.682 408.004 626.795 408.557 626.795 409.25V415H625.455V413.818H625.386C625.295 414.008 625.144 414.21 624.932 414.426C624.72 414.642 624.438 414.826 624.085 414.977C623.733 415.129 623.303 415.205 622.795 415.205ZM623 414C623.53 414 623.977 413.896 624.341 413.688C624.708 413.479 624.985 413.21 625.17 412.881C625.36 412.551 625.455 412.205 625.455 411.841V410.614C625.398 410.682 625.273 410.744 625.08 410.801C624.89 410.854 624.67 410.902 624.42 410.943C624.174 410.981 623.934 411.015 623.699 411.045C623.468 411.072 623.28 411.095 623.136 411.114C622.788 411.159 622.462 411.233 622.159 411.335C621.86 411.434 621.617 411.583 621.432 411.784C621.25 411.981 621.159 412.25 621.159 412.591C621.159 413.057 621.331 413.409 621.676 413.648C622.025 413.883 622.466 414 623 414ZM630.584 403.364V415H629.243V403.364H630.584ZM638.54 411.432V406.273H639.881V415H638.54V413.523H638.449C638.244 413.966 637.926 414.343 637.494 414.653C637.063 414.96 636.517 415.114 635.858 415.114C635.312 415.114 634.828 414.994 634.403 414.756C633.979 414.513 633.646 414.15 633.403 413.665C633.161 413.176 633.04 412.561 633.04 411.818V406.273H634.381V411.727C634.381 412.364 634.559 412.871 634.915 413.25C635.275 413.629 635.733 413.818 636.29 413.818C636.623 413.818 636.962 413.733 637.307 413.562C637.655 413.392 637.947 413.131 638.182 412.778C638.42 412.426 638.54 411.977 638.54 411.432ZM645.996 415.182C645.155 415.182 644.429 414.996 643.82 414.625C643.214 414.25 642.746 413.727 642.416 413.057C642.09 412.383 641.928 411.598 641.928 410.705C641.928 409.811 642.09 409.023 642.416 408.341C642.746 407.655 643.204 407.121 643.791 406.739C644.382 406.352 645.071 406.159 645.859 406.159C646.314 406.159 646.763 406.235 647.206 406.386C647.649 406.538 648.053 406.784 648.416 407.125C648.78 407.462 649.07 407.909 649.286 408.466C649.501 409.023 649.609 409.708 649.609 410.523V411.091H642.882V409.932H648.246C648.246 409.439 648.147 409 647.95 408.614C647.757 408.227 647.481 407.922 647.121 407.699C646.765 407.475 646.344 407.364 645.859 407.364C645.325 407.364 644.863 407.496 644.473 407.761C644.087 408.023 643.789 408.364 643.581 408.784C643.373 409.205 643.268 409.655 643.268 410.136V410.909C643.268 411.568 643.382 412.127 643.609 412.585C643.84 413.04 644.161 413.386 644.57 413.625C644.979 413.86 645.454 413.977 645.996 413.977C646.348 413.977 646.666 413.928 646.95 413.83C647.238 413.727 647.486 413.576 647.695 413.375C647.903 413.17 648.064 412.917 648.178 412.614L649.473 412.977C649.337 413.417 649.107 413.803 648.786 414.136C648.464 414.466 648.066 414.723 647.592 414.909C647.119 415.091 646.587 415.182 645.996 415.182Z" fill="#1D2D44"/>
<path d="M594.409 470V458.364H598.341C599.254 458.364 600 458.528 600.58 458.858C601.163 459.184 601.595 459.625 601.875 460.182C602.155 460.739 602.295 461.36 602.295 462.045C602.295 462.731 602.155 463.354 601.875 463.915C601.598 464.475 601.17 464.922 600.591 465.256C600.011 465.585 599.269 465.75 598.364 465.75H595.545V464.5H598.318C598.943 464.5 599.445 464.392 599.824 464.176C600.203 463.96 600.477 463.669 600.648 463.301C600.822 462.93 600.909 462.511 600.909 462.045C600.909 461.58 600.822 461.163 600.648 460.795C600.477 460.428 600.201 460.14 599.818 459.932C599.436 459.72 598.928 459.614 598.295 459.614H595.818V470H594.409ZM606.952 470.205C606.399 470.205 605.897 470.1 605.446 469.892C604.995 469.68 604.637 469.375 604.372 468.977C604.107 468.576 603.974 468.091 603.974 467.523C603.974 467.023 604.073 466.617 604.27 466.307C604.467 465.992 604.73 465.746 605.06 465.568C605.389 465.39 605.753 465.258 606.151 465.17C606.552 465.08 606.955 465.008 607.361 464.955C607.891 464.886 608.321 464.835 608.651 464.801C608.984 464.763 609.226 464.701 609.378 464.614C609.533 464.527 609.611 464.375 609.611 464.159V464.114C609.611 463.553 609.457 463.117 609.151 462.807C608.848 462.496 608.387 462.341 607.77 462.341C607.13 462.341 606.628 462.481 606.264 462.761C605.901 463.042 605.645 463.341 605.497 463.659L604.224 463.205C604.452 462.674 604.755 462.261 605.134 461.966C605.516 461.667 605.933 461.458 606.384 461.341C606.838 461.22 607.285 461.159 607.724 461.159C608.005 461.159 608.327 461.193 608.69 461.261C609.058 461.326 609.412 461.46 609.753 461.665C610.098 461.869 610.384 462.178 610.611 462.591C610.838 463.004 610.952 463.557 610.952 464.25V470H609.611V468.818H609.543C609.452 469.008 609.3 469.21 609.088 469.426C608.876 469.642 608.594 469.826 608.241 469.977C607.889 470.129 607.459 470.205 606.952 470.205ZM607.156 469C607.687 469 608.134 468.896 608.497 468.688C608.865 468.479 609.141 468.21 609.327 467.881C609.516 467.551 609.611 467.205 609.611 466.841V465.614C609.554 465.682 609.429 465.744 609.236 465.801C609.046 465.854 608.827 465.902 608.577 465.943C608.33 465.981 608.09 466.015 607.855 466.045C607.624 466.072 607.437 466.095 607.293 466.114C606.944 466.159 606.618 466.233 606.315 466.335C606.016 466.434 605.774 466.583 605.588 466.784C605.406 466.981 605.315 467.25 605.315 467.591C605.315 468.057 605.488 468.409 605.832 468.648C606.181 468.883 606.622 469 607.156 469ZM619.581 463.227L618.376 463.568C618.301 463.367 618.189 463.172 618.041 462.983C617.897 462.79 617.7 462.631 617.45 462.506C617.2 462.381 616.88 462.318 616.49 462.318C615.956 462.318 615.511 462.441 615.155 462.688C614.803 462.93 614.626 463.239 614.626 463.614C614.626 463.947 614.748 464.21 614.99 464.403C615.232 464.597 615.611 464.758 616.126 464.886L617.422 465.205C618.202 465.394 618.784 465.684 619.166 466.074C619.549 466.46 619.74 466.958 619.74 467.568C619.74 468.068 619.596 468.515 619.308 468.909C619.024 469.303 618.626 469.614 618.115 469.841C617.604 470.068 617.009 470.182 616.331 470.182C615.441 470.182 614.704 469.989 614.121 469.602C613.537 469.216 613.168 468.652 613.013 467.909L614.286 467.591C614.407 468.061 614.636 468.413 614.973 468.648C615.314 468.883 615.759 469 616.308 469C616.933 469 617.429 468.867 617.797 468.602C618.168 468.333 618.354 468.011 618.354 467.636C618.354 467.333 618.248 467.08 618.036 466.875C617.823 466.667 617.498 466.511 617.058 466.409L615.604 466.068C614.804 465.879 614.217 465.585 613.842 465.188C613.471 464.786 613.286 464.284 613.286 463.682C613.286 463.189 613.424 462.754 613.7 462.375C613.981 461.996 614.361 461.699 614.842 461.483C615.327 461.267 615.876 461.159 616.49 461.159C617.354 461.159 618.032 461.348 618.524 461.727C619.02 462.106 619.373 462.606 619.581 463.227ZM627.94 463.227L626.736 463.568C626.66 463.367 626.548 463.172 626.401 462.983C626.257 462.79 626.06 462.631 625.81 462.506C625.56 462.381 625.24 462.318 624.849 462.318C624.315 462.318 623.87 462.441 623.514 462.688C623.162 462.93 622.986 463.239 622.986 463.614C622.986 463.947 623.107 464.21 623.349 464.403C623.592 464.597 623.971 464.758 624.486 464.886L625.781 465.205C626.562 465.394 627.143 465.684 627.526 466.074C627.908 466.46 628.099 466.958 628.099 467.568C628.099 468.068 627.955 468.515 627.668 468.909C627.384 469.303 626.986 469.614 626.474 469.841C625.963 470.068 625.368 470.182 624.69 470.182C623.8 470.182 623.063 469.989 622.48 469.602C621.897 469.216 621.527 468.652 621.372 467.909L622.645 467.591C622.766 468.061 622.995 468.413 623.332 468.648C623.673 468.883 624.118 469 624.668 469C625.293 469 625.789 468.867 626.156 468.602C626.527 468.333 626.713 468.011 626.713 467.636C626.713 467.333 626.607 467.08 626.395 466.875C626.183 466.667 625.857 466.511 625.418 466.409L623.963 466.068C623.164 465.879 622.577 465.585 622.202 465.188C621.83 464.786 621.645 464.284 621.645 463.682C621.645 463.189 621.783 462.754 622.06 462.375C622.34 461.996 622.721 461.699 623.202 461.483C623.687 461.267 624.236 461.159 624.849 461.159C625.713 461.159 626.391 461.348 626.884 461.727C627.38 462.106 627.732 462.606 627.94 463.227ZM632.095 470L629.436 461.273H630.845L632.732 467.955H632.822L634.686 461.273H636.118L637.959 467.932H638.05L639.936 461.273H641.345L638.686 470H637.368L635.459 463.295H635.322L633.413 470H632.095ZM646.366 470.182C645.579 470.182 644.887 469.994 644.293 469.619C643.702 469.244 643.24 468.72 642.906 468.045C642.577 467.371 642.412 466.583 642.412 465.682C642.412 464.773 642.577 463.979 642.906 463.301C643.24 462.623 643.702 462.097 644.293 461.722C644.887 461.347 645.579 461.159 646.366 461.159C647.154 461.159 647.844 461.347 648.435 461.722C649.029 462.097 649.491 462.623 649.821 463.301C650.154 463.979 650.321 464.773 650.321 465.682C650.321 466.583 650.154 467.371 649.821 468.045C649.491 468.72 649.029 469.244 648.435 469.619C647.844 469.994 647.154 470.182 646.366 470.182ZM646.366 468.977C646.965 468.977 647.457 468.824 647.844 468.517C648.23 468.21 648.516 467.807 648.702 467.307C648.887 466.807 648.98 466.265 648.98 465.682C648.98 465.098 648.887 464.555 648.702 464.051C648.516 463.547 648.23 463.14 647.844 462.83C647.457 462.519 646.965 462.364 646.366 462.364C645.768 462.364 645.276 462.519 644.889 462.83C644.503 463.14 644.217 463.547 644.031 464.051C643.846 464.555 643.753 465.098 643.753 465.682C643.753 466.265 643.846 466.807 644.031 467.307C644.217 467.807 644.503 468.21 644.889 468.517C645.276 468.824 645.768 468.977 646.366 468.977ZM652.368 470V461.273H653.663V462.591H653.754C653.913 462.159 654.201 461.809 654.618 461.54C655.035 461.271 655.504 461.136 656.027 461.136C656.125 461.136 656.249 461.138 656.396 461.142C656.544 461.146 656.656 461.152 656.732 461.159V462.523C656.686 462.511 656.582 462.494 656.419 462.472C656.26 462.445 656.091 462.432 655.913 462.432C655.489 462.432 655.11 462.521 654.777 462.699C654.447 462.873 654.186 463.116 653.993 463.426C653.804 463.733 653.709 464.083 653.709 464.477V470H652.368ZM661.351 470.182C660.624 470.182 659.982 469.998 659.425 469.631C658.868 469.259 658.432 468.737 658.118 468.062C657.804 467.384 657.646 466.583 657.646 465.659C657.646 464.742 657.804 463.947 658.118 463.273C658.432 462.598 658.87 462.078 659.43 461.71C659.991 461.343 660.639 461.159 661.374 461.159C661.942 461.159 662.391 461.254 662.72 461.443C663.054 461.629 663.307 461.841 663.482 462.08C663.66 462.314 663.798 462.508 663.896 462.659H664.01V458.364H665.351V470H664.055V468.659H663.896C663.798 468.818 663.658 469.019 663.476 469.261C663.294 469.5 663.035 469.714 662.697 469.903C662.36 470.089 661.911 470.182 661.351 470.182ZM661.533 468.977C662.071 468.977 662.525 468.837 662.896 468.557C663.268 468.273 663.55 467.881 663.743 467.381C663.936 466.877 664.033 466.295 664.033 465.636C664.033 464.985 663.938 464.415 663.749 463.926C663.559 463.434 663.279 463.051 662.908 462.778C662.536 462.502 662.078 462.364 661.533 462.364C660.964 462.364 660.491 462.509 660.112 462.801C659.737 463.089 659.455 463.481 659.266 463.977C659.08 464.47 658.987 465.023 658.987 465.636C658.987 466.258 659.082 466.822 659.271 467.33C659.464 467.833 659.749 468.235 660.124 468.534C660.502 468.83 660.972 468.977 661.533 468.977Z" fill="#1D2D44"/>
<path d="M593 491C593 486.582 596.582 483 601 483H857C861.418 483 865 486.582 865 491V515C865 519.418 861.418 523 857 523H601C596.582 523 593 519.418 593 515V491Z" fill="#748CAB"/>
<path d="M601 483.5H857V482.5H601V483.5ZM864.5 491V515H865.5V491H864.5ZM857 522.5H601V523.5H857V522.5ZM593.5 515V491H592.5V515H593.5ZM601 522.5C596.858 522.5 593.5 519.142 593.5 515H592.5C592.5 519.694 596.306 523.5 601 523.5V522.5ZM864.5 515C864.5 519.142 861.142 522.5 857 522.5V523.5C861.694 523.5 865.5 519.694 865.5 515H864.5ZM857 483.5C861.142 483.5 864.5 486.858 864.5 491H865.5C865.5 486.306 861.694 482.5 857 482.5V483.5ZM601 482.5C596.306 482.5 592.5 486.306 592.5 491H593.5C593.5 486.858 596.858 483.5 601 483.5V482.5Z" fill="#1D2D44"/>
<path d="M610.886 497.364L614.341 507.159H614.477L617.932 497.364H619.409L615.136 509H613.682L609.409 497.364H610.886ZM622.795 509.205C622.242 509.205 621.741 509.1 621.29 508.892C620.839 508.68 620.481 508.375 620.216 507.977C619.951 507.576 619.818 507.091 619.818 506.523C619.818 506.023 619.917 505.617 620.114 505.307C620.311 504.992 620.574 504.746 620.903 504.568C621.233 504.39 621.597 504.258 621.994 504.17C622.396 504.08 622.799 504.008 623.205 503.955C623.735 503.886 624.165 503.835 624.494 503.801C624.828 503.763 625.07 503.701 625.222 503.614C625.377 503.527 625.455 503.375 625.455 503.159V503.114C625.455 502.553 625.301 502.117 624.994 501.807C624.691 501.496 624.231 501.341 623.614 501.341C622.973 501.341 622.472 501.481 622.108 501.761C621.744 502.042 621.489 502.341 621.341 502.659L620.068 502.205C620.295 501.674 620.598 501.261 620.977 500.966C621.36 500.667 621.777 500.458 622.227 500.341C622.682 500.22 623.129 500.159 623.568 500.159C623.848 500.159 624.17 500.193 624.534 500.261C624.902 500.326 625.256 500.46 625.597 500.665C625.941 500.869 626.227 501.178 626.455 501.591C626.682 502.004 626.795 502.557 626.795 503.25V509H625.455V507.818H625.386C625.295 508.008 625.144 508.21 624.932 508.426C624.72 508.642 624.438 508.826 624.085 508.977C623.733 509.129 623.303 509.205 622.795 509.205ZM623 508C623.53 508 623.977 507.896 624.341 507.688C624.708 507.479 624.985 507.21 625.17 506.881C625.36 506.551 625.455 506.205 625.455 505.841V504.614C625.398 504.682 625.273 504.744 625.08 504.801C624.89 504.854 624.67 504.902 624.42 504.943C624.174 504.981 623.934 505.015 623.699 505.045C623.468 505.072 623.28 505.095 623.136 505.114C622.788 505.159 622.462 505.233 622.159 505.335C621.86 505.434 621.617 505.583 621.432 505.784C621.25 505.981 621.159 506.25 621.159 506.591C621.159 507.057 621.331 507.409 621.676 507.648C622.025 507.883 622.466 508 623 508ZM630.584 497.364V509H629.243V497.364H630.584ZM638.54 505.432V500.273H639.881V509H638.54V507.523H638.449C638.244 507.966 637.926 508.343 637.494 508.653C637.063 508.96 636.517 509.114 635.858 509.114C635.312 509.114 634.828 508.994 634.403 508.756C633.979 508.513 633.646 508.15 633.403 507.665C633.161 507.176 633.04 506.561 633.04 505.818V500.273H634.381V505.727C634.381 506.364 634.559 506.871 634.915 507.25C635.275 507.629 635.733 507.818 636.29 507.818C636.623 507.818 636.962 507.733 637.307 507.562C637.655 507.392 637.947 507.131 638.182 506.778C638.42 506.426 638.54 505.977 638.54 505.432ZM645.996 509.182C645.155 509.182 644.429 508.996 643.82 508.625C643.214 508.25 642.746 507.727 642.416 507.057C642.09 506.383 641.928 505.598 641.928 504.705C641.928 503.811 642.09 503.023 642.416 502.341C642.746 501.655 643.204 501.121 643.791 500.739C644.382 500.352 645.071 500.159 645.859 500.159C646.314 500.159 646.763 500.235 647.206 500.386C647.649 500.538 648.053 500.784 648.416 501.125C648.78 501.462 649.07 501.909 649.286 502.466C649.501 503.023 649.609 503.708 649.609 504.523V505.091H642.882V503.932H648.246C648.246 503.439 648.147 503 647.95 502.614C647.757 502.227 647.481 501.922 647.121 501.699C646.765 501.475 646.344 501.364 645.859 501.364C645.325 501.364 644.863 501.496 644.473 501.761C644.087 502.023 643.789 502.364 643.581 502.784C643.373 503.205 643.268 503.655 643.268 504.136V504.909C643.268 505.568 643.382 506.127 643.609 506.585C643.84 507.04 644.161 507.386 644.57 507.625C644.979 507.86 645.454 507.977 645.996 507.977C646.348 507.977 646.666 507.928 646.95 507.83C647.238 507.727 647.486 507.576 647.695 507.375C647.903 507.17 648.064 506.917 648.178 506.614L649.473 506.977C649.337 507.417 649.107 507.803 648.786 508.136C648.464 508.466 648.066 508.723 647.592 508.909C647.119 509.091 646.587 509.182 645.996 509.182Z" fill="#1D2D44"/>
<mask id="mask1_5_1287" style="mask-type:luminance" maskUnits="userSpaceOnUse" x="593" y="550" width="16" height="16">
<path d="M593 554C593 551.791 594.791 550 597 550H605C607.209 550 609 551.791 609 554V562C609 564.209 607.209 566 605 566H597C594.791 566 593 564.209 593 562V554Z" fill="white"/>
</mask>
<g mask="url(#mask1_5_1287)">
<path d="M593 554C593 551.791 594.791 550 597 550H605C607.209 550 609 551.791 609 554V562C609 564.209 607.209 566 605 566H597C594.791 566 593 564.209 593 562V554Z" fill="#1D2D44"/>
<path d="M606.333 554L599 561.333L595.667 558" stroke="#F0EBD8" stroke-width="1.6" stroke-linecap="round" stroke-linejoin="round"/>
</g>
<path d="M622.409 564V552.364H623.818V562.75H629.227V564H622.409ZM633.795 564.205C633.242 564.205 632.741 564.1 632.29 563.892C631.839 563.68 631.481 563.375 631.216 562.977C630.951 562.576 630.818 562.091 630.818 561.523C630.818 561.023 630.917 560.617 631.114 560.307C631.311 559.992 631.574 559.746 631.903 559.568C632.233 559.39 632.597 559.258 632.994 559.17C633.396 559.08 633.799 559.008 634.205 558.955C634.735 558.886 635.165 558.835 635.494 558.801C635.828 558.763 636.07 558.701 636.222 558.614C636.377 558.527 636.455 558.375 636.455 558.159V558.114C636.455 557.553 636.301 557.117 635.994 556.807C635.691 556.496 635.231 556.341 634.614 556.341C633.973 556.341 633.472 556.481 633.108 556.761C632.744 557.042 632.489 557.341 632.341 557.659L631.068 557.205C631.295 556.674 631.598 556.261 631.977 555.966C632.36 555.667 632.777 555.458 633.227 555.341C633.682 555.22 634.129 555.159 634.568 555.159C634.848 555.159 635.17 555.193 635.534 555.261C635.902 555.326 636.256 555.46 636.597 555.665C636.941 555.869 637.227 556.178 637.455 556.591C637.682 557.004 637.795 557.557 637.795 558.25V564H636.455V562.818H636.386C636.295 563.008 636.144 563.21 635.932 563.426C635.72 563.642 635.438 563.826 635.085 563.977C634.733 564.129 634.303 564.205 633.795 564.205ZM634 563C634.53 563 634.977 562.896 635.341 562.688C635.708 562.479 635.985 562.21 636.17 561.881C636.36 561.551 636.455 561.205 636.455 560.841V559.614C636.398 559.682 636.273 559.744 636.08 559.801C635.89 559.854 635.67 559.902 635.42 559.943C635.174 559.981 634.934 560.015 634.699 560.045C634.468 560.072 634.28 560.095 634.136 560.114C633.788 560.159 633.462 560.233 633.159 560.335C632.86 560.434 632.617 560.583 632.432 560.784C632.25 560.981 632.159 561.25 632.159 561.591C632.159 562.057 632.331 562.409 632.676 562.648C633.025 562.883 633.466 563 634 563ZM640.425 564V552.364H641.766V556.659H641.879C641.978 556.508 642.114 556.314 642.288 556.08C642.466 555.841 642.72 555.629 643.05 555.443C643.383 555.254 643.834 555.159 644.402 555.159C645.137 555.159 645.785 555.343 646.345 555.71C646.906 556.078 647.343 556.598 647.658 557.273C647.972 557.947 648.129 558.742 648.129 559.659C648.129 560.583 647.972 561.384 647.658 562.062C647.343 562.737 646.908 563.259 646.351 563.631C645.794 563.998 645.152 564.182 644.425 564.182C643.864 564.182 643.415 564.089 643.078 563.903C642.741 563.714 642.482 563.5 642.3 563.261C642.118 563.019 641.978 562.818 641.879 562.659H641.72V564H640.425ZM641.743 559.636C641.743 560.295 641.839 560.877 642.033 561.381C642.226 561.881 642.508 562.273 642.879 562.557C643.25 562.837 643.705 562.977 644.243 562.977C644.804 562.977 645.271 562.83 645.646 562.534C646.025 562.235 646.309 561.833 646.499 561.33C646.692 560.822 646.788 560.258 646.788 559.636C646.788 559.023 646.694 558.47 646.504 557.977C646.319 557.481 646.036 557.089 645.658 556.801C645.283 556.509 644.811 556.364 644.243 556.364C643.697 556.364 643.239 556.502 642.868 556.778C642.497 557.051 642.216 557.434 642.027 557.926C641.838 558.415 641.743 558.985 641.743 559.636ZM653.839 564.182C652.999 564.182 652.273 563.996 651.663 563.625C651.057 563.25 650.589 562.727 650.26 562.057C649.934 561.383 649.771 560.598 649.771 559.705C649.771 558.811 649.934 558.023 650.26 557.341C650.589 556.655 651.048 556.121 651.635 555.739C652.226 555.352 652.915 555.159 653.703 555.159C654.158 555.159 654.607 555.235 655.05 555.386C655.493 555.538 655.896 555.784 656.26 556.125C656.624 556.462 656.913 556.909 657.129 557.466C657.345 558.023 657.453 558.708 657.453 559.523V560.091H650.726V558.932H656.089C656.089 558.439 655.991 558 655.794 557.614C655.601 557.227 655.324 556.922 654.964 556.699C654.608 556.475 654.188 556.364 653.703 556.364C653.169 556.364 652.707 556.496 652.317 556.761C651.93 557.023 651.633 557.364 651.425 557.784C651.216 558.205 651.112 558.655 651.112 559.136V559.909C651.112 560.568 651.226 561.127 651.453 561.585C651.684 562.04 652.004 562.386 652.413 562.625C652.822 562.86 653.298 562.977 653.839 562.977C654.192 562.977 654.51 562.928 654.794 562.83C655.082 562.727 655.33 562.576 655.538 562.375C655.747 562.17 655.908 561.917 656.021 561.614L657.317 561.977C657.18 562.417 656.951 562.803 656.629 563.136C656.307 563.466 655.91 563.723 655.436 563.909C654.963 564.091 654.43 564.182 653.839 564.182ZM660.834 552.364V564H659.493V552.364H660.834Z" fill="#1D2D44"/>
<path d="M626 586H622.409V574.364H626.159C627.288 574.364 628.254 574.597 629.057 575.062C629.86 575.525 630.475 576.189 630.903 577.057C631.331 577.92 631.545 578.955 631.545 580.159C631.545 581.371 631.33 582.415 630.898 583.29C630.466 584.161 629.837 584.831 629.011 585.301C628.186 585.767 627.182 586 626 586ZM623.818 584.75H625.909C626.871 584.75 627.669 584.564 628.301 584.193C628.934 583.822 629.405 583.294 629.716 582.608C630.027 581.922 630.182 581.106 630.182 580.159C630.182 579.22 630.028 578.411 629.722 577.733C629.415 577.051 628.956 576.528 628.347 576.165C627.737 575.797 626.977 575.614 626.068 575.614H623.818V584.75ZM637.386 586.182C636.545 586.182 635.82 585.996 635.21 585.625C634.604 585.25 634.136 584.727 633.807 584.057C633.481 583.383 633.318 582.598 633.318 581.705C633.318 580.811 633.481 580.023 633.807 579.341C634.136 578.655 634.595 578.121 635.182 577.739C635.773 577.352 636.462 577.159 637.25 577.159C637.705 577.159 638.153 577.235 638.597 577.386C639.04 577.538 639.443 577.784 639.807 578.125C640.17 578.462 640.46 578.909 640.676 579.466C640.892 580.023 641 580.708 641 581.523V582.091H634.273V580.932H639.636C639.636 580.439 639.538 580 639.341 579.614C639.148 579.227 638.871 578.922 638.511 578.699C638.155 578.475 637.735 578.364 637.25 578.364C636.716 578.364 636.254 578.496 635.864 578.761C635.477 579.023 635.18 579.364 634.972 579.784C634.763 580.205 634.659 580.655 634.659 581.136V581.909C634.659 582.568 634.773 583.127 635 583.585C635.231 584.04 635.551 584.386 635.96 584.625C636.369 584.86 636.845 584.977 637.386 584.977C637.739 584.977 638.057 584.928 638.341 584.83C638.629 584.727 638.877 584.576 639.085 584.375C639.294 584.17 639.455 583.917 639.568 583.614L640.864 583.977C640.727 584.417 640.498 584.803 640.176 585.136C639.854 585.466 639.456 585.723 638.983 585.909C638.509 586.091 637.977 586.182 637.386 586.182ZM649.222 579.227L648.017 579.568C647.941 579.367 647.83 579.172 647.682 578.983C647.538 578.79 647.341 578.631 647.091 578.506C646.841 578.381 646.521 578.318 646.131 578.318C645.597 578.318 645.152 578.441 644.795 578.688C644.443 578.93 644.267 579.239 644.267 579.614C644.267 579.947 644.388 580.21 644.631 580.403C644.873 580.597 645.252 580.758 645.767 580.886L647.062 581.205C647.843 581.394 648.424 581.684 648.807 582.074C649.189 582.46 649.381 582.958 649.381 583.568C649.381 584.068 649.237 584.515 648.949 584.909C648.665 585.303 648.267 585.614 647.756 585.841C647.244 586.068 646.65 586.182 645.972 586.182C645.081 586.182 644.345 585.989 643.761 585.602C643.178 585.216 642.809 584.652 642.653 583.909L643.926 583.591C644.047 584.061 644.277 584.413 644.614 584.648C644.955 584.883 645.4 585 645.949 585C646.574 585 647.07 584.867 647.438 584.602C647.809 584.333 647.994 584.011 647.994 583.636C647.994 583.333 647.888 583.08 647.676 582.875C647.464 582.667 647.138 582.511 646.699 582.409L645.244 582.068C644.445 581.879 643.858 581.585 643.483 581.188C643.112 580.786 642.926 580.284 642.926 579.682C642.926 579.189 643.064 578.754 643.341 578.375C643.621 577.996 644.002 577.699 644.483 577.483C644.968 577.267 645.517 577.159 646.131 577.159C646.994 577.159 647.672 577.348 648.165 577.727C648.661 578.106 649.013 578.606 649.222 579.227ZM654.945 586.182C654.126 586.182 653.422 585.989 652.831 585.602C652.24 585.216 651.786 584.684 651.467 584.006C651.149 583.328 650.99 582.553 650.99 581.682C650.99 580.795 651.153 580.013 651.479 579.335C651.808 578.653 652.267 578.121 652.854 577.739C653.445 577.352 654.134 577.159 654.922 577.159C655.536 577.159 656.089 577.273 656.581 577.5C657.073 577.727 657.477 578.045 657.791 578.455C658.106 578.864 658.301 579.341 658.376 579.886H657.036C656.933 579.489 656.706 579.136 656.354 578.83C656.005 578.519 655.536 578.364 654.945 578.364C654.422 578.364 653.964 578.5 653.57 578.773C653.179 579.042 652.875 579.422 652.655 579.915C652.439 580.403 652.331 580.977 652.331 581.636C652.331 582.311 652.437 582.898 652.649 583.398C652.865 583.898 653.168 584.286 653.558 584.562C653.952 584.839 654.414 584.977 654.945 584.977C655.293 584.977 655.609 584.917 655.893 584.795C656.178 584.674 656.418 584.5 656.615 584.273C656.812 584.045 656.952 583.773 657.036 583.455H658.376C658.301 583.97 658.113 584.434 657.814 584.847C657.518 585.256 657.126 585.581 656.638 585.824C656.153 586.062 655.589 586.182 654.945 586.182ZM660.337 586V577.273H661.632V578.591H661.723C661.882 578.159 662.17 577.809 662.587 577.54C663.003 577.271 663.473 577.136 663.996 577.136C664.094 577.136 664.217 577.138 664.365 577.142C664.513 577.146 664.625 577.152 664.7 577.159V578.523C664.655 578.511 664.551 578.494 664.388 578.472C664.229 578.445 664.06 578.432 663.882 578.432C663.458 578.432 663.079 578.521 662.746 578.699C662.416 578.873 662.155 579.116 661.962 579.426C661.772 579.733 661.678 580.083 661.678 580.477V586H660.337ZM666.29 586V577.273H667.631V586H666.29ZM666.972 575.818C666.71 575.818 666.485 575.729 666.295 575.551C666.11 575.373 666.017 575.159 666.017 574.909C666.017 574.659 666.11 574.445 666.295 574.267C666.485 574.089 666.71 574 666.972 574C667.233 574 667.456 574.089 667.642 574.267C667.831 574.445 667.926 574.659 667.926 574.909C667.926 575.159 667.831 575.373 667.642 575.551C667.456 575.729 667.233 575.818 666.972 575.818ZM670.087 589.273V577.273H671.382V578.659H671.541C671.64 578.508 671.776 578.314 671.95 578.08C672.128 577.841 672.382 577.629 672.712 577.443C673.045 577.254 673.496 577.159 674.064 577.159C674.799 577.159 675.446 577.343 676.007 577.71C676.568 578.078 677.005 578.598 677.32 579.273C677.634 579.947 677.791 580.742 677.791 581.659C677.791 582.583 677.634 583.384 677.32 584.062C677.005 584.737 676.57 585.259 676.013 585.631C675.456 585.998 674.814 586.182 674.087 586.182C673.526 586.182 673.077 586.089 672.74 585.903C672.403 585.714 672.143 585.5 671.962 585.261C671.78 585.019 671.64 584.818 671.541 584.659H671.428V589.273H670.087ZM671.405 581.636C671.405 582.295 671.501 582.877 671.695 583.381C671.888 583.881 672.17 584.273 672.541 584.557C672.912 584.837 673.367 584.977 673.905 584.977C674.465 584.977 674.933 584.83 675.308 584.534C675.687 584.235 675.971 583.833 676.161 583.33C676.354 582.822 676.45 582.258 676.45 581.636C676.45 581.023 676.356 580.47 676.166 579.977C675.981 579.481 675.698 579.089 675.32 578.801C674.945 578.509 674.473 578.364 673.905 578.364C673.359 578.364 672.901 578.502 672.53 578.778C672.159 579.051 671.878 579.434 671.689 579.926C671.5 580.415 671.405 580.985 671.405 581.636ZM683.632 577.273V578.409H679.109V577.273H683.632ZM680.428 575.182H681.768V583.5C681.768 583.879 681.823 584.163 681.933 584.352C682.047 584.538 682.191 584.663 682.365 584.727C682.543 584.788 682.731 584.818 682.928 584.818C683.075 584.818 683.196 584.811 683.291 584.795C683.386 584.777 683.462 584.761 683.518 584.75L683.791 585.955C683.7 585.989 683.573 586.023 683.411 586.057C683.248 586.095 683.041 586.114 682.791 586.114C682.412 586.114 682.041 586.032 681.678 585.869C681.318 585.706 681.018 585.458 680.78 585.125C680.545 584.792 680.428 584.371 680.428 583.864V575.182ZM685.649 586V577.273H686.99V586H685.649ZM686.331 575.818C686.07 575.818 685.844 575.729 685.655 575.551C685.469 575.373 685.376 575.159 685.376 574.909C685.376 574.659 685.469 574.445 685.655 574.267C685.844 574.089 686.07 574 686.331 574C686.592 574 686.816 574.089 687.001 574.267C687.191 574.445 687.286 574.659 687.286 574.909C687.286 575.159 687.191 575.373 687.001 575.551C686.816 575.729 686.592 575.818 686.331 575.818ZM692.991 586.182C692.204 586.182 691.512 585.994 690.918 585.619C690.327 585.244 689.865 584.72 689.531 584.045C689.202 583.371 689.037 582.583 689.037 581.682C689.037 580.773 689.202 579.979 689.531 579.301C689.865 578.623 690.327 578.097 690.918 577.722C691.512 577.347 692.204 577.159 692.991 577.159C693.779 577.159 694.469 577.347 695.06 577.722C695.654 578.097 696.116 578.623 696.446 579.301C696.779 579.979 696.946 580.773 696.946 581.682C696.946 582.583 696.779 583.371 696.446 584.045C696.116 584.72 695.654 585.244 695.06 585.619C694.469 585.994 693.779 586.182 692.991 586.182ZM692.991 584.977C693.59 584.977 694.082 584.824 694.469 584.517C694.855 584.21 695.141 583.807 695.327 583.307C695.512 582.807 695.605 582.265 695.605 581.682C695.605 581.098 695.512 580.555 695.327 580.051C695.141 579.547 694.855 579.14 694.469 578.83C694.082 578.519 693.59 578.364 692.991 578.364C692.393 578.364 691.901 578.519 691.514 578.83C691.128 579.14 690.842 579.547 690.656 580.051C690.471 580.555 690.378 581.098 690.378 581.682C690.378 582.265 690.471 582.807 690.656 583.307C690.842 583.807 691.128 584.21 691.514 584.517C691.901 584.824 692.393 584.977 692.991 584.977ZM700.334 580.75V586H698.993V577.273H700.288V578.636H700.402C700.607 578.193 700.917 577.837 701.334 577.568C701.75 577.295 702.288 577.159 702.947 577.159C703.538 577.159 704.055 577.28 704.499 577.523C704.942 577.761 705.286 578.125 705.533 578.614C705.779 579.098 705.902 579.712 705.902 580.455V586H704.561V580.545C704.561 579.86 704.383 579.326 704.027 578.943C703.671 578.557 703.182 578.364 702.561 578.364C702.133 578.364 701.75 578.456 701.413 578.642C701.08 578.828 700.817 579.098 700.624 579.455C700.43 579.811 700.334 580.242 700.334 580.75Z" fill="#1D2D44"/>
<path d="M593 623C593 618.582 596.582 615 601 615H857C861.418 615 865 618.582 865 623V647C865 651.418 861.418 655 857 655H601C596.582 655 593 651.418 593 647V623Z" fill="#1D2D44"/>
<mask id="mask2_5_1287" style="mask-type:luminance" maskUnits="userSpaceOnUse" x="593" y="615" width="272" height="40">
<path d="M593 623C593 618.582 596.582 615 601 615H857C861.418 615 865 618.582 865 623V647C865 651.418 861.418 655 857 655H601C596.582 655 593 651.418 593 647V623Z" fill="white"/>
</mask>
<g mask="url(#mask2_5_1287)">
<path d="M601 616H857V614H601V616ZM864 623V647H866V623H864ZM857 654H601V656H857V654ZM594 647V623H592V647H594ZM601 654C597.134 654 594 650.866 594 647H592C592 651.971 596.029 656 601 656V654ZM864 647C864 650.866 860.866 654 857 654V656C861.971 656 866 651.971 866 647H864ZM857 616C860.866 616 864 619.134 864 623H866C866 618.029 861.971 614 857 614V616ZM601 614C596.029 614 592 618.029 592 623H594C594 619.134 597.134 616 601 616V614Z" fill="#1D2D44"/>
</g>
<path d="M698.909 641V629.364H702.841C703.75 629.364 704.496 629.519 705.08 629.83C705.663 630.136 706.095 630.559 706.375 631.097C706.655 631.634 706.795 632.246 706.795 632.932C706.795 633.617 706.655 634.225 706.375 634.756C706.095 635.286 705.665 635.703 705.085 636.006C704.506 636.305 703.765 636.455 702.864 636.455H699.682V635.182H702.818C703.439 635.182 703.939 635.091 704.318 634.909C704.701 634.727 704.977 634.47 705.148 634.136C705.322 633.799 705.409 633.398 705.409 632.932C705.409 632.466 705.322 632.059 705.148 631.71C704.973 631.362 704.695 631.093 704.312 630.903C703.93 630.71 703.424 630.614 702.795 630.614H700.318V641H698.909ZM704.386 635.773L707.25 641H705.614L702.795 635.773H704.386ZM712.527 641.182C711.686 641.182 710.961 640.996 710.351 640.625C709.745 640.25 709.277 639.727 708.947 639.057C708.622 638.383 708.459 637.598 708.459 636.705C708.459 635.811 708.622 635.023 708.947 634.341C709.277 633.655 709.735 633.121 710.322 632.739C710.913 632.352 711.603 632.159 712.391 632.159C712.845 632.159 713.294 632.235 713.737 632.386C714.18 632.538 714.584 632.784 714.947 633.125C715.311 633.462 715.601 633.909 715.817 634.466C716.033 635.023 716.141 635.708 716.141 636.523V637.091H709.413V635.932H714.777C714.777 635.439 714.679 635 714.482 634.614C714.288 634.227 714.012 633.922 713.652 633.699C713.296 633.475 712.875 633.364 712.391 633.364C711.857 633.364 711.394 633.496 711.004 633.761C710.618 634.023 710.321 634.364 710.112 634.784C709.904 635.205 709.8 635.655 709.8 636.136V636.909C709.8 637.568 709.913 638.127 710.141 638.585C710.372 639.04 710.692 639.386 711.101 639.625C711.51 639.86 711.985 639.977 712.527 639.977C712.879 639.977 713.197 639.928 713.482 639.83C713.769 639.727 714.018 639.576 714.226 639.375C714.434 639.17 714.595 638.917 714.709 638.614L716.004 638.977C715.868 639.417 715.639 639.803 715.317 640.136C714.995 640.466 714.597 640.723 714.124 640.909C713.65 641.091 713.118 641.182 712.527 641.182ZM721.703 644.455C721.055 644.455 720.499 644.371 720.033 644.205C719.567 644.042 719.179 643.826 718.868 643.557C718.561 643.292 718.317 643.008 718.135 642.705L719.203 641.955C719.324 642.114 719.478 642.295 719.663 642.5C719.849 642.708 720.103 642.888 720.425 643.04C720.75 643.195 721.177 643.273 721.703 643.273C722.408 643.273 722.989 643.102 723.447 642.761C723.906 642.42 724.135 641.886 724.135 641.159V639.386H724.021C723.923 639.545 723.783 639.742 723.601 639.977C723.423 640.208 723.165 640.415 722.828 640.597C722.495 640.775 722.044 640.864 721.476 640.864C720.771 640.864 720.139 640.697 719.578 640.364C719.021 640.03 718.58 639.545 718.254 638.909C717.932 638.273 717.771 637.5 717.771 636.591C717.771 635.697 717.929 634.919 718.243 634.256C718.557 633.589 718.995 633.074 719.555 632.71C720.116 632.343 720.764 632.159 721.499 632.159C722.067 632.159 722.518 632.254 722.851 632.443C723.188 632.629 723.446 632.841 723.624 633.08C723.805 633.314 723.946 633.508 724.044 633.659H724.18V632.273H725.476V641.25C725.476 642 725.305 642.61 724.964 643.08C724.627 643.553 724.173 643.9 723.601 644.119C723.033 644.343 722.4 644.455 721.703 644.455ZM721.658 639.659C722.196 639.659 722.65 639.536 723.021 639.29C723.393 639.044 723.675 638.689 723.868 638.227C724.061 637.765 724.158 637.212 724.158 636.568C724.158 635.939 724.063 635.384 723.874 634.903C723.684 634.422 723.404 634.045 723.033 633.773C722.661 633.5 722.203 633.364 721.658 633.364C721.089 633.364 720.616 633.508 720.237 633.795C719.862 634.083 719.58 634.47 719.391 634.955C719.205 635.439 719.112 635.977 719.112 636.568C719.112 637.174 719.207 637.71 719.396 638.176C719.589 638.638 719.874 639.002 720.249 639.267C720.627 639.528 721.097 639.659 721.658 639.659ZM727.93 641V632.273H729.271V641H727.93ZM728.612 630.818C728.351 630.818 728.125 630.729 727.936 630.551C727.75 630.373 727.658 630.159 727.658 629.909C727.658 629.659 727.75 629.445 727.936 629.267C728.125 629.089 728.351 629 728.612 629C728.874 629 729.097 629.089 729.283 629.267C729.472 629.445 729.567 629.659 729.567 629.909C729.567 630.159 729.472 630.373 729.283 630.551C729.097 630.729 728.874 630.818 728.612 630.818ZM737.909 634.227L736.705 634.568C736.629 634.367 736.517 634.172 736.369 633.983C736.225 633.79 736.028 633.631 735.778 633.506C735.528 633.381 735.208 633.318 734.818 633.318C734.284 633.318 733.839 633.441 733.483 633.688C733.131 633.93 732.955 634.239 732.955 634.614C732.955 634.947 733.076 635.21 733.318 635.403C733.561 635.597 733.939 635.758 734.455 635.886L735.75 636.205C736.53 636.394 737.112 636.684 737.494 637.074C737.877 637.46 738.068 637.958 738.068 638.568C738.068 639.068 737.924 639.515 737.636 639.909C737.352 640.303 736.955 640.614 736.443 640.841C735.932 641.068 735.337 641.182 734.659 641.182C733.769 641.182 733.032 640.989 732.449 640.602C731.866 640.216 731.496 639.652 731.341 638.909L732.614 638.591C732.735 639.061 732.964 639.413 733.301 639.648C733.642 639.883 734.087 640 734.636 640C735.261 640 735.758 639.867 736.125 639.602C736.496 639.333 736.682 639.011 736.682 638.636C736.682 638.333 736.576 638.08 736.364 637.875C736.152 637.667 735.826 637.511 735.386 637.409L733.932 637.068C733.133 636.879 732.545 636.585 732.17 636.188C731.799 635.786 731.614 635.284 731.614 634.682C731.614 634.189 731.752 633.754 732.028 633.375C732.309 632.996 732.689 632.699 733.17 632.483C733.655 632.267 734.205 632.159 734.818 632.159C735.682 632.159 736.36 632.348 736.852 632.727C737.348 633.106 737.701 633.606 737.909 634.227ZM743.882 632.273V633.409H739.359V632.273H743.882ZM740.678 630.182H742.018V638.5C742.018 638.879 742.073 639.163 742.183 639.352C742.297 639.538 742.441 639.663 742.615 639.727C742.793 639.788 742.981 639.818 743.178 639.818C743.325 639.818 743.446 639.811 743.541 639.795C743.636 639.777 743.712 639.761 743.768 639.75L744.041 640.955C743.95 640.989 743.823 641.023 743.661 641.057C743.498 641.095 743.291 641.114 743.041 641.114C742.662 641.114 742.291 641.032 741.928 640.869C741.568 640.706 741.268 640.458 741.03 640.125C740.795 639.792 740.678 639.371 740.678 638.864V630.182ZM749.464 641.182C748.624 641.182 747.898 640.996 747.288 640.625C746.682 640.25 746.214 639.727 745.885 639.057C745.559 638.383 745.396 637.598 745.396 636.705C745.396 635.811 745.559 635.023 745.885 634.341C746.214 633.655 746.673 633.121 747.26 632.739C747.851 632.352 748.54 632.159 749.328 632.159C749.783 632.159 750.232 632.235 750.675 632.386C751.118 632.538 751.521 632.784 751.885 633.125C752.249 633.462 752.538 633.909 752.754 634.466C752.97 635.023 753.078 635.708 753.078 636.523V637.091H746.351V635.932H751.714C751.714 635.439 751.616 635 751.419 634.614C751.226 634.227 750.949 633.922 750.589 633.699C750.233 633.475 749.813 633.364 749.328 633.364C748.794 633.364 748.332 633.496 747.942 633.761C747.555 634.023 747.258 634.364 747.05 634.784C746.841 635.205 746.737 635.655 746.737 636.136V636.909C746.737 637.568 746.851 638.127 747.078 638.585C747.309 639.04 747.629 639.386 748.038 639.625C748.447 639.86 748.923 639.977 749.464 639.977C749.817 639.977 750.135 639.928 750.419 639.83C750.707 639.727 750.955 639.576 751.163 639.375C751.372 639.17 751.533 638.917 751.646 638.614L752.942 638.977C752.805 639.417 752.576 639.803 752.254 640.136C751.932 640.466 751.535 640.723 751.061 640.909C750.588 641.091 750.055 641.182 749.464 641.182ZM755.118 641V632.273H756.413V633.591H756.504C756.663 633.159 756.951 632.809 757.368 632.54C757.785 632.271 758.254 632.136 758.777 632.136C758.875 632.136 758.999 632.138 759.146 632.142C759.294 632.146 759.406 632.152 759.482 632.159V633.523C759.436 633.511 759.332 633.494 759.169 633.472C759.01 633.445 758.841 633.432 758.663 633.432C758.239 633.432 757.86 633.521 757.527 633.699C757.197 633.873 756.936 634.116 756.743 634.426C756.554 634.733 756.459 635.083 756.459 635.477V641H755.118Z" fill="#F0EBD8"/>
<path d="M80 108V88H92V108M68 82L86 68L104 82V104C104 105.061 103.579 106.078 102.828 106.828C102.078 107.579 101.061 108 100 108H72C70.9391 108 69.9217 107.579 69.1716 106.828C68.4214 106.078 68 105.061 68 104V82Z" stroke="#1E1E1E" stroke-width="4" stroke-linecap="round" stroke-linejoin="round"/>
<path d="M215 74H223C224.061 74 225.078 74.4214 225.828 75.1716C226.579 75.9217 227 76.9391 227 78V106C227 107.061 226.579 108.078 225.828 108.828C225.078 109.579 224.061 110 223 110H215M205 102L215 92M215 92L205 82M215 92H191" stroke="#1E1E1E" stroke-width="4" stroke-linecap="round" stroke-linejoin="round"/>
<path d="M350 84V110H314V84M328 92H336M310 74H354V84H310V74Z" stroke="#1E1E1E" stroke-width="4" stroke-linecap="round" stroke-linejoin="round"/>
<path d="M457 72V80M441 72V80M431 88H467M435 76H463C465.209 76 467 77.7909 467 80V108C467 110.209 465.209 112 463 112H435C432.791 112 431 110.209 431 108V80C431 77.7909 432.791 76 435 76Z" stroke="#1E1E1E" stroke-width="4" stroke-linecap="round" stroke-linejoin="round"/>
</g>
<defs>
<filter id="filter0_dd_5_1287" x="4" y="4" width="1460" height="1044" filterUnits="userSpaceOnUse" color-interpolation-filters="sRGB">
<feFlood flood-opacity="0" result="BackgroundImageFix"/>
<feColorMatrix in="SourceAlpha" type="matrix" values="0 0 0 0 0 0 0 0 0 0 0 0 0 0 0 0 0 0 127 0" result="hardAlpha"/>
<feOffset dy="2"/>
<feGaussianBlur stdDeviation="1.5"/>
<feColorMatrix type="matrix" values="0 0 0 0 0 0 0 0 0 0 0 0 0 0 0 0 0 0 0.3 0"/>
<feBlend mode="normal" in2="BackgroundImageFix" result="effect1_dropShadow_5_1287"/>
<feColorMatrix in="SourceAlpha" type="matrix" values="0 0 0 0 0 0 0 0 0 0 0 0 0 0 0 0 0 0 127 0" result="hardAlpha"/>
<feOffset dy="6"/>
<feGaussianBlur stdDeviation="5"/>
<feColorMatrix type="matrix" values="0 0 0 0 0 0 0 0 0 0 0 0 0 0 0 0 0 0 0.15 0"/>
<feBlend mode="normal" in2="effect1_dropShadow_5_1287" result="effect2_dropShadow_5_1287"/>
<feBlend mode="normal" in="SourceGraphic" in2="effect2_dropShadow_5_1287" result="shape"/>
</filter>
<filter id="filter1_d_5_1287" x="669.016" y="74.9375" width="122.14" height="37.7344" filterUnits="userSpaceOnUse" color-interpolation-filters="sRGB">
<feFlood flood-opacity="0" result="BackgroundImageFix"/>
<feColorMatrix in="SourceAlpha" type="matrix" values="0 0 0 0 0 0 0 0 0 0 0 0 0 0 0 0 0 0 127 0" result="hardAlpha"/>
<feOffset dy="4"/>
<feGaussianBlur stdDeviation="2"/>
<feComposite in2="hardAlpha" operator="out"/>
<feColorMatrix type="matrix" values="0 0 0 0 0 0 0 0 0 0 0 0 0 0 0 0 0 0 0.25 0"/>
<feBlend mode="normal" in2="BackgroundImageFix" result="effect1_dropShadow_5_1287"/>
<feBlend mode="normal" in="SourceGraphic" in2="effect1_dropShadow_5_1287" result="shape"/>
</filter>
</defs>
</svg>
